<svg xmlns="http://www.w3.org/2000/svg" version="1.1" viewBox="1.6209555864334106 1.4008656740188599 216.19483947753906 549.92919921875" width="219.00" height="553.00">
<g stroke-width="2.00" fill="none" stroke-linecap="butt">
<path stroke="#8a2be2" d="&#10;  M 171.97 112.79&#10;  Q 168.58 158.50 160.74 203.18&#10;  Q 155.55 232.77 146.24 257.85&#10;  Q 141.23 271.35 131.45 293.47" data-c-stroke="db3a7c"/>
<path stroke="#8a2be2" stroke-opacity="0.949" d="&#10;  M 131.45 293.47&#10;  L 128.31 294.04" data-c-stroke="983584" data-o-stroke="0.949"/>
<path stroke="#8a2be2" d="&#10;  M 125.12 231.46&#10;  L 134.22 144.99" data-c-stroke="f44162"/>
<path stroke="#8a2be2" d="&#10;  M 134.10 119.14&#10;  Q 129.35 91.21 132.46 63.73" data-c-stroke="f44162"/>
<path stroke="#8a2be2" d="&#10;  M 86.75 296.14&#10;  C 84.05 292.08 79.97 289.66 76.41 286.61&#10;  A 0.89 0.88 36.8 0 0 75.09 286.80&#10;  Q 72.13 291.39 74.02 296.27" data-c-stroke="ff5957"/>
<path stroke="#8a2be2" d="&#10;  M 187.02 178.42&#10;  Q 182.37 195.81 181.99 201.07&#10;  Q 180.63 220.29 175.20 236.53&#10;  Q 170.88 249.48 162.20 268.11&#10;  C 160.67 271.40 158.79 276.05 156.31 279.07&#10;  Q 149.84 286.95 146.43 292.95" data-c-stroke="b7349f"/>
<path stroke="#8a2be2" stroke-opacity="0.949" d="&#10;  M 146.43 292.95&#10;  L 131.45 293.47" data-c-stroke="893293" data-o-stroke="0.949"/>
<path stroke="#8a2be2" stroke-opacity="0.949" d="&#10;  M 152.28 293.60&#10;  L 146.43 292.95" data-c-stroke="732fa9" data-o-stroke="0.949"/>
<path stroke="#8a2be2" d="&#10;  M 118.95 236.87&#10;  Q 119.72 237.70 119.44 239.66&#10;  Q 119.16 241.67 119.15 242.37&#10;  Q 118.94 266.75 119.55 291.11&#10;  Q 119.71 297.65 119.45 323.46" data-c-stroke="d03b85"/>
<path stroke="#8a2be2" stroke-opacity="0.949" d="&#10;  M 125.3097 527.6469&#10;  A 1.30 0.70 70.7 0 0 125.5407 526.1886&#10;  A 1.30 0.70 70.7 0 0 124.4503 525.1931&#10;  A 1.30 0.70 70.7 0 0 124.2193 526.6514&#10;  A 1.30 0.70 70.7 0 0 125.3097 527.6469" data-c-stroke="8b3674" data-o-stroke="0.949"/>
</g>
<path fill="#8a2be2" d="&#10;  M 148.01 60.42&#10;  C 147.23 59.36 145.92 58.43 144.25 58.44&#10;  Q 131.12 58.51 80.75 58.71&#10;  Q 77.63 58.72 74.12 58.38&#10;  A 0.73 0.72 -71.1 0 1 73.58 57.27&#10;  C 75.47 54.31 76.66 51.34 78.64 48.02&#10;  Q 88.16 32.10 97.51 17.35&#10;  C 101.10 11.69 105.74 5.92 109.52 1.76&#10;  A 1.11 1.11 0.0 0 1 111.19 1.80&#10;  C 114.03 5.24 117.41 9.47 119.67 13.29&#10;  Q 121.65 16.64 126.57 23.85&#10;  Q 136.58 38.55 148.34 60.24&#10;  Q 149.70 62.75 148.01 60.42&#10;  Z" data-c-fill="fe4656"/>
<path fill="#8a2be2" d="&#10;  M 171.97 112.79&#10;  Q 168.58 158.50 160.74 203.18&#10;  Q 155.55 232.77 146.24 257.85&#10;  Q 141.23 271.35 131.45 293.47&#10;  L 128.31 294.04&#10;  Q 126.89 293.03 126.89 289.00&#10;  Q 126.86 263.02 126.97 237.03&#10;  Q 126.97 236.97 127.05 234.96&#10;  Q 127.21 231.30 125.12 231.46&#10;  L 134.22 144.99&#10;  Q 140.86 132.06 134.10 119.14&#10;  Q 129.35 91.21 132.46 63.73&#10;  Q 142.70 63.68 146.50 63.87&#10;  Q 148.82 63.99 149.12 62.34&#10;  Q 149.20 61.89 149.41 62.30&#10;  Q 154.28 71.91 158.14 80.07&#10;  Q 165.82 96.35 171.97 112.79&#10;  Z" data-c-fill="e93c6e"/>
<path fill="#8a2be2" d="&#10;  M 132.46 63.73&#10;  Q 129.35 91.21 134.10 119.14&#10;  Q 125.80 106.95 111.76 106.29&#10;  C 102.87 105.87 95.66 109.98 89.95 116.47&#10;  C 85.51 121.50 84.60 128.72 85.31 135.00&#10;  C 86.36 144.28 92.58 152.02 100.90 155.85&#10;  Q 105.68 158.05 111.33 158.10&#10;  Q 126.03 158.24 134.22 144.99&#10;  L 125.12 231.46&#10;  L 94.16 231.44&#10;  A 1.02 1.02 0.0 0 0 93.14 232.45&#10;  L 92.70 299.24&#10;  Q 92.70 299.64 92.31 299.51&#10;  Q 92.16 299.46 92.03 299.35&#10;  Q 91.78 299.13 91.71 298.90&#10;  Q 90.70 295.52 86.75 296.14&#10;  C 84.05 292.08 79.97 289.66 76.41 286.61&#10;  A 0.89 0.88 36.8 0 0 75.09 286.80&#10;  Q 72.13 291.39 74.02 296.27&#10;  Q 72.24 296.96 70.85 296.64&#10;  Q 69.73 296.39 68.81 294.79&#10;  Q 56.25 273.09 50.08 258.17&#10;  Q 38.51 230.18 34.27 204.20&#10;  Q 31.59 187.77 33.75 167.91&#10;  Q 34.76 158.71 37.49 148.29&#10;  Q 41.61 132.60 45.94 119.96&#10;  Q 47.46 115.52 51.27 106.09&#10;  C 53.37 100.89 56.17 93.40 58.81 87.77&#10;  Q 63.72 77.29 69.98 64.85&#10;  A 1.88 1.87 -76.6 0 1 71.65 63.82&#10;  L 132.46 63.73&#10;  Z" data-c-fill="fe4656"/>
<path fill="#8a2be2" d="&#10;  M 171.97 112.79&#10;  Q 178.51 129.72 182.72 147.01&#10;  Q 186.51 162.53 187.02 178.42&#10;  Q 182.37 195.81 181.99 201.07&#10;  Q 180.63 220.29 175.20 236.53&#10;  Q 170.88 249.48 162.20 268.11&#10;  C 160.67 271.40 158.79 276.05 156.31 279.07&#10;  Q 149.84 286.95 146.43 292.95&#10;  L 131.45 293.47&#10;  Q 141.23 271.35 146.24 257.85&#10;  Q 155.55 232.77 160.74 203.18&#10;  Q 168.58 158.50 171.97 112.79&#10;  Z" data-c-fill="cc378a"/>
<path fill="#8a2be2" d="&#10;  M 187.02 178.42&#10;  Q 187.42 188.29 186.82 194.93&#10;  Q 185.25 212.28 179.93 229.85&#10;  Q 177.49 237.92 173.80 248.89&#10;  Q 168.14 265.78 159.81 282.05&#10;  Q 157.77 286.05 152.28 293.60&#10;  L 146.43 292.95&#10;  Q 149.84 286.95 156.31 279.07&#10;  C 158.79 276.05 160.67 271.40 162.20 268.11&#10;  Q 170.88 249.48 175.20 236.53&#10;  Q 180.63 220.29 181.99 201.07&#10;  Q 182.37 195.81 187.02 178.42&#10;  Z" data-c-fill="a230b3"/>
<path fill="#8a2be2" d="&#10;  M 118.95 236.87&#10;  Q 119.72 237.70 119.44 239.66&#10;  Q 119.16 241.67 119.15 242.37&#10;  Q 118.94 266.75 119.55 291.11&#10;  Q 119.71 297.65 119.45 323.46&#10;  L 98.81 321.97&#10;  A 0.97 0.97 0.0 0 1 97.92 321.00&#10;  L 98.47 237.76&#10;  A 0.97 0.96 0.3 0 1 99.44 236.81&#10;  L 118.95 236.87&#10;  Z" data-c-fill="fe4656"/>
<path fill="#8a2be2" d="&#10;  M 119.45 323.46&#10;  Q 119.71 297.65 119.55 291.11&#10;  Q 118.94 266.75 119.15 242.37&#10;  Q 119.16 241.67 119.44 239.66&#10;  Q 119.72 237.70 118.95 236.87&#10;  L 121.02 236.91&#10;  Q 121.98 236.92 122.00 237.88&#10;  Q 122.42 257.31 122.47 276.61&#10;  Q 122.54 309.65 122.72 319.94&#10;  Q 122.73 320.67 122.97 322.02&#10;  Q 123.11 322.83 123.12 323.66&#10;  Q 123.13 324.19 122.60 324.09&#10;  L 119.45 323.46&#10;  Z" data-c-fill="a230b3"/>
<path fill="#8a2be2" d="&#10;  M 194.49 384.71&#10;  Q 193.18 386.79 192.34 387.69&#10;  A 0.79 0.78 -37.2 0 1 191.07 387.52&#10;  Q 179.53 365.16 154.85 317.35&#10;  C 153.41 314.58 151.62 311.96 149.90 309.39&#10;  Q 149.37 308.60 149.89 307.81&#10;  Q 157.02 297.12 160.71 290.98&#10;  Q 168.67 277.78 174.28 265.70&#10;  A 1.20 1.20 0.0 0 1 175.63 265.04&#10;  Q 181.71 266.38 184.59 267.26&#10;  C 195.93 270.72 205.06 279.32 210.66 289.81&#10;  Q 214.81 297.59 216.70 307.19&#10;  Q 218.35 315.56 217.56 325.44&#10;  Q 216.09 343.83 207.40 361.70&#10;  Q 202.22 372.35 194.49 384.71&#10;  Z" data-c-fill="e93c6e"/>
<path fill="#8a2be2" d="&#10;  M 27.40 389.65&#10;  A 0.08 0.08 0.0 0 1 27.27 389.66&#10;  Q 16.78 373.76 9.20 355.95&#10;  Q 5.07 346.27 3.21 337.09&#10;  Q -1.51 313.77 7.79 292.69&#10;  Q 9.29 289.29 11.83 285.82&#10;  Q 15.02 281.46 16.78 279.53&#10;  C 23.36 272.30 33.37 266.29 43.54 265.36&#10;  Q 47.32 265.01 48.68 268.36&#10;  Q 48.85 268.78 52.95 276.56&#10;  Q 54.96 280.39 57.04 284.93&#10;  Q 60.73 293.03 66.70 300.19&#10;  C 68.31 302.12 69.71 304.57 71.05 306.67&#10;  A 1.93 1.93 0.0 0 1 71.12 308.61&#10;  L 27.40 389.65&#10;  Z" data-c-fill="fe4656"/>
<path fill="#8a2be2" d="&#10;  M 86.75 296.14&#10;  L 74.02 296.27&#10;  Q 72.13 291.39 75.09 286.80&#10;  A 0.89 0.88 36.8 0 1 76.41 286.61&#10;  C 79.97 289.66 84.05 292.08 86.75 296.14&#10;  Z" data-c-fill="ff6c58"/>
<path fill="#8a2be2" fill-opacity="0.898" d="&#10;  M 146.43 292.95&#10;  L 152.28 293.60&#10;  L 149.59 298.28&#10;  A 2.31 2.31 0.0 0 1 147.43 299.43&#10;  Q 142.00 299.04 137.00 298.87&#10;  Q 133.69 298.76 130.61 297.83&#10;  Q 129.76 297.58 130.53 297.14&#10;  L 131.37 296.65&#10;  Q 132.11 296.23 132.95 296.38&#10;  Q 133.74 296.53 134.16 295.95&#10;  Q 134.88 294.99 133.76 294.57&#10;  Q 131.53 293.72 128.31 294.04&#10;  L 131.45 293.47&#10;  L 146.43 292.95&#10;  Z" data-c-fill="3e2d9d" data-o-fill="0.898"/>
<path fill="#8a2be2" fill-opacity="0.898" d="&#10;  M 127.97 296.91&#10;  A 0.45 0.45 0.0 0 1 128.55 296.66&#10;  Q 128.78 296.75 128.97 296.94&#10;  Q 129.30 297.29 128.98 297.68&#10;  Q 128.88 297.80 128.60 297.90&#10;  Q 128.00 298.13 127.89 297.49&#10;  Q 127.85 297.24 127.97 296.91&#10;  Z" data-c-fill="3e2d9d" data-o-fill="0.898"/>
<path fill="#8a2be2" d="&#10;  M 122.70 328.18&#10;  Q 124.74 327.75 126.57 327.37&#10;  A 0.89 0.88 82.6 0 1 127.64 328.20&#10;  Q 129.44 367.90 123.09 407.37&#10;  Q 121.55 416.98 115.28 444.10&#10;  Q 114.95 445.52 114.69 447.72&#10;  Q 114.38 450.30 113.83 451.31&#10;  Q 111.46 455.69 110.29 460.41&#10;  Q 109.96 461.75 109.51 460.45&#10;  Q 108.45 457.42 108.20 456.31&#10;  Q 105.44 444.01 101.39 425.97&#10;  Q 99.53 417.67 98.36 410.68&#10;  Q 96.52 399.75 95.86 395.25&#10;  Q 90.86 361.16 92.68 328.33&#10;  Q 92.75 327.17 93.91 327.12&#10;  Q 98.17 326.96 101.64 327.19&#10;  Q 106.87 327.53 109.38 327.98&#10;  C 113.89 328.78 118.21 329.12 122.70 328.18&#10;  Z" data-c-fill="ff6c58"/>
<rect fill="#8a2be2" x="33.36" y="445.11" width="8.66" height="45.56" rx="1.26" data-c-fill="fe4656"/>
<rect fill="#8a2be2" x="-4.33" y="-22.49" transform="translate(175.81,467.85) rotate(0.1)" width="8.66" height="44.98" rx="1.28" data-c-fill="fe4656"/>
<rect fill="#8a2be2" x="-4.34" y="-22.63" transform="translate(90.27,509.64) rotate(0.1)" width="8.68" height="45.26" rx="1.25" data-c-fill="fe4656"/>
<path fill="#8a2be2" d="&#10;  M 121.54 535.27&#10;  A 0.74 0.74 0.0 0 1 120.79 534.53&#10;  L 120.75 507.25&#10;  A 2.13 2.08 -0.1 0 1 122.87 505.17&#10;  L 128.61 505.16&#10;  A 2.13 2.08 -0.1 0 1 130.75 507.23&#10;  L 130.79 534.51&#10;  A 0.74 0.74 0.0 0 1 130.06 535.25&#10;  L 121.54 535.27&#10;  Z&#10;  M 125.3097 527.6469&#10;  A 1.30 0.70 70.7 0 0 125.5407 526.1886&#10;  A 1.30 0.70 70.7 0 0 124.4503 525.1931&#10;  A 1.30 0.70 70.7 0 0 124.2193 526.6514&#10;  A 1.30 0.70 70.7 0 0 125.3097 527.6469&#10;  Z" data-c-fill="d13e4f"/>
<ellipse fill="#8a2be2" fill-opacity="0.898" cx="0.00" cy="0.00" transform="translate(124.88,526.42) rotate(70.7)" rx="1.30" ry="0.70" data-c-fill="3e2d9d" data-o-fill="0.898"/>
<path fill="#8a2be2" d="&#10;  M 70.27 527.43&#10;  L 71.92 527.43&#10;  A 1.24 1.24 0.0 0 1 73.15 528.68&#10;  L 73.01 550.10&#10;  A 1.24 1.24 0.0 0 1 71.76 551.33&#10;  L 70.78 551.32&#10;  A 1.24 1.24 0.0 0 1 69.55 550.11&#10;  L 69.02 528.70&#10;  A 1.24 1.24 0.0 0 1 70.27 527.43&#10;  Z" data-c-fill="fe4656"/>
<path fill="#8a2be2" d="&#10;  M 63.71 549.47&#10;  L 62.79 549.50&#10;  A 0.88 0.88 0.0 0 1 61.89 548.64&#10;  L 61.50 532.71&#10;  A 0.88 0.88 0.0 0 1 63.14 532.25&#10;  L 64.10 533.92&#10;  A 0.88 0.88 0.0 0 1 64.22 534.33&#10;  L 64.57 548.57&#10;  A 0.88 0.88 0.0 0 1 63.71 549.47&#10;  Z" data-c-fill="fe4656"/>
<path fill="#8a2be2" d="&#10;  M 147.79 546.04&#10;  Q 147.59 542.70 147.58 541.98&#10;  Q 147.55 537.43 152.25 537.59&#10;  C 155.88 537.72 156.31 541.66 155.90 544.42&#10;  Q 155.16 549.44 149.91 549.96&#10;  A 1.68 1.68 0.0 0 1 148.09 548.59&#10;  Q 147.87 547.36 147.79 546.04&#10;  Z" data-c-fill="fe4656"/>
</svg>